<?xml version="1.0" encoding="UTF-8"?>
<svg id="Layer_2" data-name="Layer 2" xmlns="http://www.w3.org/2000/svg" viewBox="0 0 422.05 55.38">
  <defs>
    <style>
      .cls-1 {
        fill: #000;
      }

      .cls-2 {
        fill: #3100ff;
      }

      .cls-3 {
        fill: #eb008b;
      }

      .cls-4 {
        fill: #fff100;
      }
    </style>
  </defs>
  <g id="Layer_1-2" data-name="Layer 1">
    <g>
      <path class="cls-2" d="m18.3,1.71h15.42c1.34,0,2.42,1.09,2.42,2.42v15.42h-17.85V1.71h0Z" transform="translate(16.59 37.86) rotate(-90)"/>
      <rect class="cls-4" x="36.15" y="1.71" width="17.85" height="17.85" transform="translate(34.43 55.7) rotate(-90)"/>
      <path class="cls-3" d="m53.99,1.71h17.85v15.35c0,1.38-1.12,2.5-2.5,2.5h-12.85c-1.38,0-2.5-1.12-2.5-2.5V1.71h0Z" transform="translate(52.28 73.55) rotate(-90)"/>
      <path class="cls-2" d="m2.42,19.56h13c1.34,0,2.42,1.09,2.42,2.42v15.42H0v-15.42c0-1.34,1.09-2.42,2.42-2.42Z" transform="translate(-19.56 37.4) rotate(-90)"/>
      <rect class="cls-4" x="17.85" y="19.56" width="17.85" height="17.85" transform="translate(-1.71 55.25) rotate(-90)"/>
      <rect class="cls-3" x="35.69" y="19.56" width="17.85" height="17.85" transform="translate(16.13 73.09) rotate(-90)"/>
      <path class="cls-2" d="m20.72,37.53h15.42v17.85h-17.85v-15.42c0-1.34,1.09-2.42,2.42-2.42Z" transform="translate(-19.23 73.68) rotate(-90)"/>
      <rect class="cls-4" x="36.15" y="37.53" width="17.85" height="17.85" transform="translate(-1.39 91.52) rotate(-90)"/>
      <path class="cls-3" d="m53.99,37.53h17.85v15.35c0,1.38-1.12,2.5-2.5,2.5h-12.85c-1.38,0-2.5-1.12-2.5-2.5v-15.35h0Z" transform="translate(16.46 109.37) rotate(-90)"/>
    </g>
    <g>
      <path class="cls-1" d="m79.74,9.75l.17-7.43c.02-.93.78-1.67,1.71-1.67h37.53c.95,0,1.71.77,1.71,1.71v6.75c0,.95-.77,1.71-1.71,1.71h-27.31c-.95,0-1.71.77-1.71,1.71v17.78c0,.95.77,1.71,1.71,1.71h27.31c.95,0,1.71.77,1.71,1.71v6.85c0,.95-.77,1.71-1.71,1.71h-27.31c-.95,0-1.71.77-1.71,1.71v6.85c0,.95-.77,1.71-1.71,1.71h-6.77c-.94,0-1.7-.75-1.71-1.69l-.19-15.23c0-1.5-.02-3.91-.05-7.23-.04-3.32-.05-5.77-.05-7.34,0-1.78.02-3.96.05-6.53.04-2.57.05-4.18.05-4.82Zm42.84,1.07h6.85c.95,0,1.71.77,1.71,1.71v17.14c0,.95-.77,1.71-1.71,1.71h-6.85c-.95,0-1.71-.77-1.71-1.71V12.53c0-.95.77-1.71,1.71-1.71Z"/>
      <path class="cls-1" d="m141.86,11.03v-6.75c0-.95.77-1.71,1.71-1.71h26.77c.86,0,1.59.64,1.7,1.49l.24,1.83c.21,1.79.32,3.5.32,5.14h0c0,.95-.77,1.71-1.71,1.71h-6.75c-.95,0-1.71.77-1.71,1.71v28.06c0,.95.77,1.71,1.71,1.71h6.75c.95,0,1.71.77,1.71,1.71v6.85c0,.95-.77,1.71-1.71,1.71h-27.31c-.95,0-1.71-.77-1.71-1.71v-6.85c0-.95.77-1.71,1.71-1.71h6.85c.95,0,1.71-.77,1.71-1.71V14.46c0-.95-.77-1.71-1.71-1.71h-6.85c-.95,0-1.71-.77-1.71-1.71Z"/>
      <path class="cls-1" d="m183.74,4.18c.21-.64,2-.96,5.36-.96h3.43c.95,0,1.71.77,1.71,1.71v17.03c0,.95.77,1.71,1.71,1.71h27.31c.95,0,1.71-.77,1.71-1.71V4.93c0-.95.77-1.71,1.71-1.71h6.85c.95,0,1.71.77,1.71,1.71v17.07c0,.93-.74,1.69-1.68,1.71l-3.25.07-3.46.15c-.89.04-1.6.75-1.64,1.64l-.15,3.36-.07,3.36c-.02.93-.78,1.68-1.71,1.68h-27.35c-.95,0-1.71.77-1.71,1.71v17.78c0,.95-.77,1.71-1.71,1.71h-3.43c-3.29,0-5.07-.36-5.36-1.07-.29-.71-.43-3.78-.43-9.21s.14-8.5.43-9.21c.28-.71,1.75-1.07,4.39-1.07,3,0,4.77-.21,5.3-.64.54-.43.8-1.93.8-4.5s-.34-4.27-1.02-4.87c-.68-.61-2.45-.91-5.3-.91-2.5,0-3.89-.32-4.18-.96-.29-.86-.43-3.93-.43-9.21s.14-8.46.43-9.32Zm41.24,49.27v-17.14c0-.95.77-1.71,1.71-1.71h6.85c.95,0,1.71.77,1.71,1.71v17.14c0,.95-.77,1.71-1.71,1.71h-6.85c-.95,0-1.71-.77-1.71-1.71Z"/>
      <path class="cls-1" d="m256.36,11.03v-6.75c0-.95.77-1.71,1.71-1.71h38.24c.95,0,1.71.77,1.71,1.71v6.75c0,.95-.77,1.71-1.71,1.71h-18.74c-4.64,0-8.27.02-10.87.05-2.61.04-4.68.09-6.21.16-1.54.07-2.54.18-3,.32-.46.14-.73.32-.8.54-.21.5-.32,5.75-.32,15.75v12.92c0,.96-.79,1.73-1.75,1.71l-3.18-.07-3.41-.15c-.91-.04-1.63-.78-1.64-1.69l-.19-14.02-.09-13.8c0-.95.76-1.73,1.71-1.73h6.84c.95,0,1.71-.77,1.71-1.71Zm0,34.91c0-.94.76-1.71,1.7-1.71l13.83-.1,13.84-.19c.94-.01,1.69-.78,1.69-1.71v-6.93c0-.93-.73-1.68-1.66-1.71-2.17-.07-5.03-.16-8.57-.27-3.55-.11-6.4-.2-8.57-.27-.93-.03-1.65-.79-1.65-1.71v-6.29c0-.94.75-1.7,1.69-1.71l13.84-.19,13.8-.1c.95,0,1.73.76,1.73,1.71v28.05c0,.95-.77,1.71-1.71,1.71h-38.24c-.95,0-1.71-.77-1.71-1.71v-6.87Z"/>
      <path class="cls-1" d="m308.73,53.45V4.93c0-.95.77-1.71,1.71-1.71h47.88c.95,0,1.71.77,1.71,1.71v6.75c0,.95-.77,1.71-1.71,1.71h-37.59c-.95,0-1.71.77-1.71,1.71v6.85c0,.95.77,1.71,1.71,1.71h27.31c.95,0,1.71.77,1.71,1.71v6.85c0,.95-.77,1.71-1.71,1.71h-27.31c-.95,0-1.71.77-1.71,1.71v7.5c0,.95.77,1.71,1.71,1.71h37.59c.95,0,1.71.77,1.71,1.71v6.85c0,.95-.77,1.71-1.71,1.71h-47.88c-.95,0-1.71-.77-1.71-1.71Z"/>
      <path class="cls-1" d="m370.75,50.23V1.71c0-.95.77-1.71,1.71-1.71h6.85c.95,0,1.71.77,1.71,1.71v6.85c0,.95.77,1.71,1.71,1.71h6.85c.95,0,1.71.77,1.71,1.71v6.75c0,.95-.77,1.71-1.71,1.71h-6.85c-.95,0-1.71.77-1.71,1.71v28.06c0,.95-.77,1.71-1.71,1.71h-6.85c-.95,0-1.71-.77-1.71-1.71Zm22.28-29.78h6.75c.95,0,1.71.77,1.71,1.71v6.85c0,.95-.77,1.71-1.71,1.71h-6.75c-.95,0-1.71-.77-1.71-1.71v-6.85c0-.95.77-1.71,1.71-1.71Zm18.74,9.21V1.71c0-.95.77-1.71,1.71-1.71h6.85c.95,0,1.71.77,1.71,1.71v48.52c0,.95-.77,1.71-1.71,1.71h-6.85c-.95,0-1.71-.77-1.71-1.71v-6.85c0-.95-.77-1.71-1.71-1.71h-6.85c-.95,0-1.71-.77-1.71-1.71v-6.85c0-.95.77-1.71,1.71-1.71h6.85c.95,0,1.71-.77,1.71-1.71Z"/>
    </g>
  </g>
</svg>